<svg xmlns="http://www.w3.org/2000/svg" xmlns:xlink="http://www.w3.org/1999/xlink" width="50" zoomAndPan="magnify" viewBox="0 0 37.5 37.499999" height="50" preserveAspectRatio="xMidYMid meet" version="1.0"><defs><clipPath id="53333e8f69"><path d="M 1.554688 1.554688 L 35.601562 1.554688 L 35.601562 35.601562 L 1.554688 35.601562 Z M 1.554688 1.554688 " clip-rule="nonzero"/></clipPath></defs><g clip-path="url(#53333e8f69)"><path fill="#ffffff" d="M 11.480469 1.671875 C 9.675781 1.753906 8.445312 2.042969 7.367188 2.464844 C 6.253906 2.898438 5.3125 3.480469 4.371094 4.425781 C 3.433594 5.367188 2.855469 6.3125 2.425781 7.429688 C 2.007812 8.507812 1.726562 9.738281 1.644531 11.542969 C 1.566406 13.351562 1.546875 13.925781 1.554688 18.527344 C 1.5625 23.128906 1.585938 23.707031 1.671875 25.511719 C 1.757812 27.316406 2.042969 28.542969 2.464844 29.621094 C 2.898438 30.738281 3.480469 31.679688 4.425781 32.621094 C 5.367188 33.558594 6.3125 34.136719 7.429688 34.566406 C 8.507812 34.984375 9.738281 35.269531 11.542969 35.347656 C 13.351562 35.425781 13.925781 35.445312 18.527344 35.433594 C 23.128906 35.425781 23.703125 35.40625 25.511719 35.320312 C 27.3125 35.234375 28.542969 34.945312 29.621094 34.523438 C 30.734375 34.089844 31.679688 33.507812 32.617188 32.566406 C 33.554688 31.621094 34.132812 30.675781 34.566406 29.558594 C 34.980469 28.484375 35.265625 27.25 35.34375 25.449219 C 35.421875 23.640625 35.441406 23.0625 35.433594 18.464844 C 35.425781 13.863281 35.402344 13.289062 35.320312 11.480469 C 35.234375 9.675781 34.945312 8.445312 34.523438 7.367188 C 34.089844 6.253906 33.507812 5.3125 32.566406 4.371094 C 31.621094 3.433594 30.675781 2.855469 29.558594 2.425781 C 28.484375 2.007812 27.25 1.722656 25.449219 1.644531 C 23.640625 1.566406 23.0625 1.546875 18.460938 1.554688 C 13.863281 1.5625 13.285156 1.585938 11.480469 1.671875 M 11.675781 32.296875 C 10.027344 32.222656 9.128906 31.949219 8.53125 31.71875 C 7.738281 31.414062 7.175781 31.046875 6.578125 30.457031 C 5.984375 29.863281 5.617188 29.300781 5.308594 28.511719 C 5.078125 27.914062 4.796875 27.019531 4.71875 25.367188 C 4.632812 23.582031 4.613281 23.042969 4.605469 18.519531 C 4.597656 14 4.613281 13.464844 4.691406 11.675781 C 4.761719 10.027344 5.039062 9.128906 5.269531 8.53125 C 5.574219 7.738281 5.941406 7.175781 6.53125 6.582031 C 7.125 5.988281 7.6875 5.621094 8.480469 5.308594 C 9.074219 5.078125 9.972656 4.796875 11.621094 4.71875 C 13.410156 4.636719 13.945312 4.617188 18.46875 4.609375 C 22.988281 4.597656 23.527344 4.613281 25.3125 4.695312 C 26.964844 4.765625 27.863281 5.039062 28.457031 5.269531 C 29.25 5.578125 29.816406 5.941406 30.410156 6.535156 C 31.003906 7.125 31.371094 7.6875 31.679688 8.480469 C 31.914062 9.074219 32.191406 9.972656 32.269531 11.621094 C 32.355469 13.410156 32.375 13.945312 32.382812 18.46875 C 32.390625 22.988281 32.375 23.527344 32.296875 25.3125 C 32.222656 26.960938 31.949219 27.863281 31.71875 28.457031 C 31.414062 29.25 31.046875 29.8125 30.453125 30.40625 C 29.863281 31 29.300781 31.367188 28.507812 31.679688 C 27.914062 31.910156 27.015625 32.191406 25.367188 32.269531 C 23.578125 32.351562 23.042969 32.371094 18.519531 32.378906 C 14 32.386719 13.460938 32.371094 11.675781 32.292969 M 25.488281 9.441406 C 25.488281 10.5625 26.402344 11.472656 27.523438 11.46875 C 28.644531 11.464844 29.554688 10.554688 29.550781 9.433594 C 29.550781 8.308594 28.636719 7.402344 27.515625 7.402344 C 26.390625 7.402344 25.484375 8.316406 25.484375 9.4375 M 9.796875 18.511719 C 9.804688 23.316406 13.707031 27.203125 18.511719 27.191406 C 23.3125 27.183594 27.203125 23.28125 27.191406 18.476562 C 27.183594 13.675781 23.28125 9.789062 18.476562 9.796875 C 13.675781 9.804688 9.785156 13.707031 9.796875 18.511719 M 12.847656 18.503906 C 12.84375 15.386719 15.363281 12.851562 18.484375 12.847656 C 21.601562 12.84375 24.136719 15.363281 24.140625 18.484375 C 24.148438 21.601562 21.625 24.136719 18.503906 24.140625 C 15.386719 24.148438 12.851562 21.625 12.847656 18.503906 " fill-opacity="1" fill-rule="nonzero"/></g></svg>