<svg xmlns="http://www.w3.org/2000/svg" xmlns:xlink="http://www.w3.org/1999/xlink" width="50" zoomAndPan="magnify" viewBox="0 0 37.5 37.499999" height="50" preserveAspectRatio="xMidYMid meet" version="1.0"><defs><clipPath id="4f19fb2321"><path d="M 0.949219 0.851562 L 35.734375 0.851562 L 35.734375 36.378906 L 0.949219 36.378906 Z M 0.949219 0.851562 " clip-rule="nonzero"/></clipPath></defs><g clip-path="url(#4f19fb2321)"><path fill="#ffffff" d="M 30.929688 5.996094 C 27.632812 2.695312 23.246094 0.871094 18.570312 0.871094 C 8.9375 0.871094 1.097656 8.710938 1.09375 18.34375 C 1.09375 21.425781 1.898438 24.433594 3.429688 27.082031 L 0.949219 36.136719 L 10.210938 33.703125 C 12.765625 35.097656 15.636719 35.828125 18.5625 35.832031 L 18.570312 35.832031 C 28.199219 35.832031 36.039062 27.992188 36.042969 18.359375 C 36.042969 13.691406 34.230469 9.300781 30.929688 5.996094 Z M 18.570312 32.882812 L 18.5625 32.882812 C 15.960938 32.882812 13.402344 32.179688 11.171875 30.855469 L 10.640625 30.542969 L 5.144531 31.984375 L 6.609375 26.625 L 6.265625 26.074219 C 4.8125 23.761719 4.042969 21.089844 4.046875 18.34375 C 4.050781 10.339844 10.566406 3.824219 18.574219 3.824219 C 22.453125 3.824219 26.101562 5.335938 28.84375 8.082031 C 31.585938 10.828125 33.09375 14.476562 33.09375 18.355469 C 33.089844 26.367188 26.574219 32.882812 18.566406 32.882812 Z M 26.535156 22.003906 C 26.101562 21.785156 23.953125 20.730469 23.554688 20.585938 C 23.152344 20.4375 22.863281 20.367188 22.570312 20.804688 C 22.28125 21.242188 21.441406 22.222656 21.1875 22.515625 C 20.933594 22.808594 20.679688 22.84375 20.242188 22.625 C 19.804688 22.40625 18.398438 21.945312 16.730469 20.457031 C 15.433594 19.296875 14.554688 17.867188 14.300781 17.429688 C 14.046875 16.992188 14.273438 16.757812 14.492188 16.539062 C 14.6875 16.34375 14.929688 16.03125 15.148438 15.773438 C 15.367188 15.519531 15.441406 15.335938 15.585938 15.046875 C 15.730469 14.753906 15.65625 14.5 15.546875 14.28125 C 15.4375 14.0625 14.566406 11.914062 14.203125 11.039062 C 13.847656 10.1875 13.488281 10.304688 13.21875 10.289062 C 12.964844 10.277344 12.675781 10.273438 12.382812 10.273438 C 12.09375 10.273438 11.621094 10.382812 11.21875 10.820312 C 10.816406 11.257812 9.691406 12.3125 9.691406 14.460938 C 9.691406 16.609375 11.253906 18.6875 11.476562 18.980469 C 11.691406 19.269531 14.554688 23.679688 18.933594 25.570312 C 19.976562 26.023438 20.789062 26.289062 21.425781 26.492188 C 22.46875 26.824219 23.421875 26.777344 24.171875 26.664062 C 25.011719 26.539062 26.753906 25.609375 27.121094 24.589844 C 27.484375 23.570312 27.484375 22.695312 27.375 22.511719 C 27.265625 22.328125 26.972656 22.222656 26.539062 22 Z M 26.535156 22.003906 " fill-opacity="1" fill-rule="evenodd"/></g></svg>